<?xml version="1.0" standalone="no"?>
<!DOCTYPE svg PUBLIC "-//W3C//DTD SVG 20010904//EN"
 "http://www.w3.org/TR/2001/REC-SVG-20010904/DTD/svg10.dtd">
<svg version="1.0" xmlns="http://www.w3.org/2000/svg"
 width="512.000000pt" height="512.000000pt" viewBox="0 0 512.000000 512.000000"
 preserveAspectRatio="xMidYMid meet">
<metadata>
Created by potrace 1.14, written by Peter Selinger 2001-2017
</metadata>
<g transform="translate(0.000000,512.000000) scale(0.100000,-0.100000)"
fill="#000000" stroke="none">
<path d="M2310 5100 c-30 -23 -30 -17 -5 -405 3 -49 8 -111 10 -137 4 -44 2
-47 -24 -53 -35 -7 -86 -56 -99 -94 -6 -16 -9 -77 -9 -137 2 -102 4 -111 29
-145 26 -34 41 -44 98 -66 l25 -10 -1 -169 c-1 -93 -2 -185 -3 -204 l-1 -35
-328 0 c-297 -1 -332 -2 -380 -20 -76 -28 -127 -82 -177 -189 l-43 -92 -55
-17 c-57 -18 -147 -87 -147 -113 0 -8 -4 -14 -8 -14 -4 0 -13 -15 -19 -32 -7
-18 -42 -116 -79 -218 -36 -102 -88 -246 -114 -320 -27 -74 -96 -267 -154
-427 -108 -300 -146 -407 -151 -433 -2 -8 -8 -35 -14 -60 -26 -114 -32 -177
-32 -320 0 -69 2 -134 5 -145 2 -11 10 -54 17 -95 7 -41 13 -77 14 -80 1 -3 5
-18 9 -35 42 -161 141 -358 249 -494 201 -254 460 -421 774 -500 122 -31 141
-32 429 -38 293 -5 306 -4 327 45 12 27 14 27 107 27 94 0 95 0 107 -27 21
-49 34 -51 332 -46 257 4 284 7 396 32 357 82 659 289 862 591 79 118 153 281
188 416 23 87 20 69 41 219 6 42 6 265 0 300 -3 14 -7 43 -11 65 -15 101 -43
199 -115 395 -23 63 -55 153 -72 200 -17 47 -39 108 -49 135 -10 28 -47 131
-83 230 -234 656 -228 640 -293 695 -21 17 -62 38 -92 47 -53 17 -54 18 -92
98 -49 103 -67 129 -116 165 -69 51 -111 56 -458 55 -273 0 -315 2 -316 15 -1
8 -2 101 -3 207 l-1 192 33 6 c41 8 107 72 115 111 3 16 5 74 4 130 -2 89 -5
105 -27 137 -14 20 -44 46 -67 57 -41 19 -42 21 -38 62 5 55 15 207 21 323 3
50 6 112 9 138 3 40 -1 52 -21 72 l-25 25 -227 0 c-208 0 -229 -2 -252 -20z"/>
</g>
</svg>
